<?xml version="1.0" encoding="UTF-8"?><svg id="Layer_1" xmlns="http://www.w3.org/2000/svg" width="385.25" height="215.75" xmlns:xlink="http://www.w3.org/1999/xlink" viewBox="0 0 385.25 215.75"><defs><style>.cls-1,.cls-2{fill:none;}.cls-3{fill:#002d5d;}.cls-4{fill:#bbbdbe;}.cls-5{fill:#f4f4f5;stroke:#939597;stroke-dasharray:0 0 0 3;stroke-miterlimit:10;stroke-width:.25px;}.cls-2{stroke:#211e1f;stroke-width:1.44px;}.cls-6{fill:url(#SVGID_1_);isolation:isolate;opacity:.15;}</style><pattern id="SVGID_1_" x="0" y="0" width="72" height="72" patternTransform="translate(-20441.6685 -12008.6344) rotate(-96.5124) scale(.8341 .4715) skewX(-14.387)" patternUnits="userSpaceOnUse" viewBox="0 0 72 72"><g><rect class="cls-1" width="72" height="72"/><g><rect class="cls-1" width="72" height="72"/><g><rect class="cls-1" width="72" height="72"/><g><line class="cls-2" x1="71.8" y1="68.4" x2="144.3" y2="68.4"/><line class="cls-2" x1="71.8" y1="54" x2="144.3" y2="54"/><line class="cls-2" x1="71.8" y1="39.6" x2="144.3" y2="39.6"/><line class="cls-2" x1="71.8" y1="25.2" x2="144.3" y2="25.2"/><line class="cls-2" x1="71.8" y1="10.8" x2="144.3" y2="10.8"/><line class="cls-2" x1="71.8" y1="61.2" x2="144.3" y2="61.2"/><line class="cls-2" x1="71.8" y1="46.8" x2="144.3" y2="46.8"/><line class="cls-2" x1="71.8" y1="32.4" x2="144.3" y2="32.4"/><line class="cls-2" x1="71.8" y1="18" x2="144.3" y2="18"/><line class="cls-2" x1="71.8" y1="3.6" x2="144.3" y2="3.6"/></g><g><line class="cls-2" x1="-.2" y1="68.4" x2="72.3" y2="68.4"/><line class="cls-2" x1="-.2" y1="54" x2="72.3" y2="54"/><line class="cls-2" x1="-.2" y1="39.6" x2="72.3" y2="39.6"/><line class="cls-2" x1="-.2" y1="25.2" x2="72.3" y2="25.2"/><line class="cls-2" x1="-.2" y1="10.8" x2="72.3" y2="10.8"/><line class="cls-2" x1="-.2" y1="61.2" x2="72.3" y2="61.2"/><line class="cls-2" x1="-.2" y1="46.8" x2="72.3" y2="46.8"/><line class="cls-2" x1="-.2" y1="32.4" x2="72.3" y2="32.4"/><line class="cls-2" x1="-.2" y1="18" x2="72.3" y2="18"/><line class="cls-2" x1="-.2" y1="3.6" x2="72.3" y2="3.6"/></g><g><line class="cls-2" x1="-72.2" y1="68.4" x2=".3" y2="68.4"/><line class="cls-2" x1="-72.2" y1="54" x2=".3" y2="54"/><line class="cls-2" x1="-72.2" y1="39.6" x2=".3" y2="39.6"/><line class="cls-2" x1="-72.2" y1="25.2" x2=".3" y2="25.2"/><line class="cls-2" x1="-72.2" y1="10.8" x2=".3" y2="10.8"/><line class="cls-2" x1="-72.2" y1="61.2" x2=".3" y2="61.2"/><line class="cls-2" x1="-72.2" y1="46.8" x2=".3" y2="46.8"/><line class="cls-2" x1="-72.2" y1="32.4" x2=".3" y2="32.4"/><line class="cls-2" x1="-72.2" y1="18" x2=".3" y2="18"/><line class="cls-2" x1="-72.2" y1="3.6" x2=".3" y2="3.6"/></g></g></g></g></pattern></defs><g><path class="cls-3" d="M92.025,86.025c2.9,0,4.5,1.4,4.5,3.7v.7c0,1.8-1,2.7-2.5,3.2v.1c1.7,.4,2.7,1.5,2.7,3.2v.8c0,2.4-1.7,3.8-4.5,3.8h-7.1v-15.5h6.9Zm-3.7,6.6h3c1.2,0,1.9-.6,1.9-1.6v-.7c0-1-.6-1.5-1.8-1.5h-3.1v3.8h0Zm0,6.3h3.2c1.2,0,1.8-.6,1.8-1.6v-.8c0-1-.7-1.6-1.9-1.6h-3.1v4Z"/><path class="cls-3" d="M106.025,101.525h-3.3v-15.5h6.7c3.2,0,5,1.7,5,4.3v1.2c0,1.9-1,3.3-2.8,4l3.3,6h-3.6l-3-5.6h-2.3v5.6Zm0-8.2h2.7c1.6,0,2.4-.7,2.4-1.9v-.9c0-1.2-.7-1.9-2.3-1.9h-2.7l-.1,4.7h0Z"/><path class="cls-3" d="M123.825,86.025v15.5h-3.3v-15.5h3.3Z"/><path class="cls-3" d="M142.325,90.825v.6h-3.3v-.3c0-1.6-.8-2.6-2.6-2.6-2,0-3.1,1.4-3.1,3.6v3.5c0,2.2,1.2,3.6,3,3.6,1.7,0,2.9-1.1,2.9-2.8v-.6h-2.8v-2.3h6v8.1h-1.5l-.5-2.3c-.8,1.4-2.1,2.7-4.6,2.7-3.4,0-5.8-2.4-5.8-6.3v-3.6c0-3.8,2.5-6.4,6.4-6.4,3.8,0,5.9,2,5.9,5.1h0Z"/><path class="cls-3" d="M152.125,86.025v6.2h5.5v-6.2h3.3v15.5h-3.3v-6.4h-5.5v6.4h-3.3v-15.5h3.3Z"/><path class="cls-3" d="M176.025,98.625h-5.5l-.9,2.9h-3.3l5.1-15.6h3.8l5.1,15.6h-3.4l-.9-2.9h0Zm-4.7-2.6h3.9l-2-6.3h0l-1.9,6.3h0Z"/><path class="cls-3" d="M190.525,86.025l3.5,10.7h0l3.4-10.7h4.7v15.5h-3.1v-11.7h0l-3.9,11.7h-2.6l-3.9-11.7h0v11.7h-2.9v-15.5h4.8Z"/><path class="cls-3" d="M218.825,86.025l3.2,6.6,3.2-6.6h3.5l-5.1,9.6v5.9h-3.3v-5.9l-5.1-9.6h3.6Z"/><path class="cls-3" d="M245.025,92.325v3c0,4.3-2.5,6.6-6.5,6.6s-6.5-2.3-6.5-6.6v-3c0-4.3,2.5-6.6,6.5-6.6s6.5,2.2,6.5,6.6Zm-9.7-.1v3.2c0,2.5,1.1,3.6,3.2,3.6,2,0,3.1-1.1,3.1-3.6v-3.2c0-2.5-1.1-3.6-3.1-3.6-2-.1-3.2,1.1-3.2,3.6Z"/><path class="cls-3" d="M254.225,86.025v9.9c0,1.9,1,3,2.7,3,1.8,0,2.7-1,2.7-3v-9.9h3.2v9.8c0,3.8-2,6-6,6-4.1,0-6-2.2-6-6v-9.8h3.4Z"/><path class="cls-3" d="M272.625,86.025l5.9,9.9h0v-9.9h3v15.5h-3.3l-6-10h0v10h-3v-15.5h3.4Z"/><path class="cls-3" d="M299.925,90.825v.6h-3.3v-.3c0-1.6-.8-2.6-2.6-2.6-2,0-3.1,1.4-3.1,3.6v3.5c0,2.2,1.2,3.6,3,3.6,1.7,0,2.9-1.1,2.9-2.8v-.6h-2.7v-2.3h6v8.1h-1.5l-.5-2.3c-.8,1.4-2.1,2.7-4.6,2.7-3.4,0-5.8-2.4-5.8-6.3v-3.6c0-3.8,2.5-6.4,6.4-6.4,3.8,0,5.8,2,5.8,5.1Z"/><path class="cls-3" d="M129.925,118.025v7.9c0,1.5,.8,2.4,2.2,2.4s2.2-.8,2.2-2.4v-7.9h2.5v7.8c0,3-1.6,4.8-4.8,4.8s-4.8-1.7-4.8-4.8v-7.8h2.7Z"/><path class="cls-3" d="M145.425,118.025l4.8,7.9h0v-7.9h2.4v12.4h-2.6l-4.8-8h0v8h-2.4v-12.4h2.6Z"/><path class="cls-3" d="M161.325,118.025v12.4h-2.7v-12.4h2.7Z"/><path class="cls-3" d="M169.325,118.025l2.7,8.8h0l2.7-8.8h2.7l-4.2,12.5h-2.7l-4.2-12.5h3Z"/><path class="cls-3" d="M191.025,118.025v2.3h-5.9v2.7h4.5v2.2h-4.5v2.9h5.9v2.3h-8.5v-12.4h8.5Z"/><path class="cls-3" d="M199.125,130.425h-2.7v-12.4h5.4c2.6,0,4,1.3,4,3.5v.9c0,1.5-.8,2.7-2.2,3.2l2.6,4.8h-2.9l-2.4-4.5h-1.8v4.5h0Zm0-6.6h2.2c1.3,0,1.9-.6,1.9-1.5v-.7c0-.9-.5-1.5-1.9-1.5h-2.2v3.7Z"/><path class="cls-3" d="M220.425,121.525v.4h-2.6v-.4c0-.9-.6-1.6-2.1-1.6-1.2,0-1.9,.5-1.9,1.3,0,.9,.6,1.2,2.7,1.9,3.1,.9,4,1.8,4,3.8,0,2.3-1.9,3.7-4.8,3.7-3.3,0-4.8-1.5-4.8-3.8v-.6h2.6v.4c0,1.2,.8,1.8,2.3,1.8,1.3,0,2-.5,2-1.4,0-1-.5-1.2-2.8-2-2.9-.8-4-1.7-4-3.8s1.7-3.6,4.6-3.6c3.3,.2,4.8,1.7,4.8,3.9h0Z"/><path class="cls-3" d="M228.725,118.025v12.4h-2.7v-12.4h2.7Z"/><path class="cls-3" d="M243.725,118.025v2.3h-3.5v10h-2.7v-10h-3.5v-2.3h9.7Z"/><path class="cls-3" d="M250.725,118.025l2.5,5.3,2.5-5.3h2.8l-4.1,7.7v4.7h-2.7v-4.7l-4.1-7.7h3.1Z"/></g><path class="cls-5" d="M.125,.125V215.625H385.125V.125H.125ZM300.125,130.725H85.125v-45h215v45Z"/><path class="cls-6" d="M.125,.125V215.625H385.125V.125H.125ZM300.125,130.425H85.125v-44.7h215v44.7Z"/><g><path class="cls-4" d="M3.825,98.625l3.2,6.6,3.2-6.6h3.5l-5.1,9.6v5.9h-3.4v-5.9L.125,98.625H3.825Z"/><path class="cls-4" d="M30.025,104.825v3c0,4.3-2.5,6.6-6.5,6.6s-6.5-2.3-6.5-6.6v-3c0-4.3,2.5-6.6,6.5-6.6,3.9,.1,6.5,2.3,6.5,6.6Zm-9.7,0v3.2c0,2.5,1.1,3.6,3.2,3.6,2,0,3.1-1.1,3.1-3.6v-3.2c0-2.5-1.1-3.6-3.1-3.6-2-.1-3.2,1-3.2,3.6Z"/><path class="cls-4" d="M39.225,98.625v9.9c0,1.9,1,3,2.7,3s2.7-1,2.7-3v-9.9h3.2v9.8c0,3.8-2,6-6,6-4.1,0-6-2.2-6-6v-9.8h3.4Z"/><path class="cls-4" d="M57.625,98.625l5.9,9.9h0v-9.9h3v15.5h-3.3l-6-10h0v10h-3v-15.5h3.4Z"/><path class="cls-4" d="M84.925,103.425v.6h-3.3v-.3c0-1.6-.8-2.6-2.6-2.6-2,0-3.1,1.4-3.1,3.6v3.5c0,2.2,1.2,3.6,3,3.6,1.7,0,2.9-1.1,2.9-2.8v-.6h-2.7v-2.3h6v8.1h-1.5l-.5-2.3c-.8,1.4-2.1,2.7-4.6,2.7-3.4,0-5.8-2.4-5.8-6.3v-3.5c0-3.8,2.5-6.4,6.4-6.4,3.8-.1,5.8,1.9,5.8,5Z"/></g><g><path class="cls-4" d="M303.825,98.625l3.2,6.6,3.2-6.6h3.5l-5.1,9.6v5.9h-3.3v-5.9l-5.1-9.6h3.6Z"/><path class="cls-4" d="M330.025,104.825v3c0,4.3-2.5,6.6-6.5,6.6s-6.5-2.3-6.5-6.6v-3c0-4.3,2.5-6.6,6.5-6.6,4,.1,6.5,2.3,6.5,6.6Zm-9.7,0v3.2c0,2.5,1.1,3.6,3.2,3.6,2,0,3.1-1.1,3.1-3.6v-3.2c0-2.5-1.1-3.6-3.1-3.6-2-.1-3.2,1-3.2,3.6Z"/><path class="cls-4" d="M339.225,98.625v9.9c0,1.9,1,3,2.7,3s2.7-1,2.7-3v-9.9h3.2v9.8c0,3.8-2,6-6,6-4.1,0-6-2.2-6-6v-9.8h3.4Z"/><path class="cls-4" d="M357.625,98.625l5.9,9.9h0v-9.9h3v15.5h-3.3l-6-10h0v10h-3v-15.5h3.4Z"/><path class="cls-4" d="M384.925,103.425v.6h-3.3v-.3c0-1.6-.8-2.6-2.6-2.6-2,0-3.1,1.4-3.1,3.6v3.5c0,2.2,1.2,3.6,3,3.6,1.7,0,2.9-1.1,2.9-2.8v-.6h-2.7v-2.3h6v8.1h-1.5l-.5-2.3c-.8,1.4-2.1,2.7-4.6,2.7-3.4,0-5.8-2.4-5.8-6.3v-3.5c0-3.8,2.5-6.4,6.4-6.4,3.8-.1,5.8,1.9,5.8,5Z"/></g><g><path class="cls-4" d="M174.825,81.425l6.6-3.2-6.6-3.2v-3.5l9.6,5.1h5.9v3.3h-5.9l-9.6,5.1v-3.6h0Z"/><path class="cls-4" d="M181.025,55.225h3c4.3,0,6.6,2.5,6.6,6.5s-2.3,6.5-6.6,6.5h-3c-4.3,0-6.6-2.5-6.6-6.5,.1-4,2.3-6.5,6.6-6.5Zm-.1,9.7h3.2c2.5,0,3.6-1.1,3.6-3.2,0-2-1.1-3.1-3.6-3.1h-3.2c-2.5,0-3.6,1.1-3.6,3.1s1.1,3.2,3.6,3.2Z"/><path class="cls-4" d="M174.825,46.025h9.9c1.9,0,3-1,3-2.7s-1-2.7-3-2.7h-9.9v-3.2h9.8c3.8,0,6,2,6,6,0,4.1-2.2,6-6,6h-9.8v-3.4h0Z"/><path class="cls-4" d="M174.825,27.625l9.9-5.9h-9.9v-3h15.5v3.3l-10,6h10v3h-15.5v-3.4h0Z"/><path class="cls-4" d="M179.525,.325h.6V3.625h-.3c-1.6,0-2.6,.8-2.6,2.6,0,2,1.4,3.1,3.6,3.1h3.5c2.2,0,3.6-1.2,3.6-3,0-1.7-1.1-2.9-2.8-2.9h-.6v2.7h-2.4V.125h8.1V1.625l-2.3,.5c1.4,.8,2.7,2.1,2.7,4.6,0,3.4-2.4,5.8-6.3,5.8h-3.5c-3.8,0-6.4-2.5-6.4-6.4,.1-3.8,2.1-5.8,5.1-5.8h0Z"/></g><g><path class="cls-4" d="M190.325,134.225l-6.6,3.2,6.6,3.2v3.5l-9.6-5.1h-5.9v-3.3h5.9l9.6-5.1v3.6h0Z"/><path class="cls-4" d="M184.025,160.425h-3c-4.3,0-6.6-2.5-6.6-6.5s2.3-6.5,6.6-6.5h3c4.3,0,6.6,2.5,6.6,6.5s-2.2,6.5-6.6,6.5Zm.1-9.6h-3.2c-2.5,0-3.6,1.1-3.6,3.2,0,2,1.1,3.1,3.6,3.1h3.2c2.5,0,3.6-1.1,3.6-3.1,.1-2.1-1.1-3.2-3.6-3.2Z"/><path class="cls-4" d="M190.325,169.725h-9.9c-1.9,0-3,1-3,2.7s1,2.7,3,2.7h9.9v3.2h-9.8c-3.8,0-6-2-6-6,0-4.1,2.2-6,6-6h9.8v3.4h0Z"/><path class="cls-4" d="M190.325,188.125l-9.9,5.9h9.9v3h-15.5v-3.3l10-6h-10v-3h15.5v3.4h0Z"/><path class="cls-4" d="M185.525,215.425h-.6v-3.3h.3c1.6,0,2.6-.8,2.6-2.6,0-2-1.4-3.1-3.6-3.1h-3.5c-2.2,0-3.6,1.2-3.6,3,0,1.7,1.1,2.9,2.8,2.9h.6v-2.8h2.3v6h-8.1v-1.5l2.3-.5c-1.4-.8-2.7-2.1-2.7-4.6,0-3.4,2.4-5.8,6.3-5.8h3.5c3.8,0,6.4,2.5,6.4,6.4,.1,3.8-1.9,5.9-5,5.9h0Z"/></g></svg>